<?xml version="1.0" encoding="UTF-8" standalone="no"?>
<svg
   xmlns:dc="http://purl.org/dc/elements/1.1/"
   xmlns:cc="http://creativecommons.org/ns#"
   xmlns:rdf="http://www.w3.org/1999/02/22-rdf-syntax-ns#"
   xmlns:svg="http://www.w3.org/2000/svg"
   xmlns="http://www.w3.org/2000/svg"
   xmlns:sodipodi="http://sodipodi.sourceforge.net/DTD/sodipodi-0.dtd"
   xmlns:inkscape="http://www.inkscape.org/namespaces/inkscape"
   viewBox="0 0 84.854523 31.940805"
   version="1.1"
   id="svg49"
   sodipodi:docname="sogeti-logo.svg"
   inkscape:version="0.92.5 (2060ec1f9f, 2020-04-08)"
   width="84.854523"
   height="31.940805"
   inkscape:export-filename="/home/len/dev/sogeti-rockstars/sogeti-art-lottery-client-/src/assets/images/sogeti-logo.png"
   inkscape:export-xdpi="226.27"
   inkscape:export-ydpi="226.27">
  <metadata
     id="metadata53">
    <rdf:RDF>
      <cc:Work
         rdf:about="">
        <dc:format>image/svg+xml</dc:format>
        <dc:type
           rdf:resource="http://purl.org/dc/dcmitype/StillImage" />
        <dc:title>18BDA4BC-B47B-495F-AEF8-8BDB7279FAF7</dc:title>
      </cc:Work>
    </rdf:RDF>
  </metadata>
  <sodipodi:namedview
     pagecolor="#ffffff"
     bordercolor="#666666"
     borderopacity="1"
     objecttolerance="10"
     gridtolerance="10"
     guidetolerance="10"
     inkscape:pageopacity="0"
     inkscape:pageshadow="2"
     inkscape:window-width="1852"
     inkscape:window-height="1049"
     id="namedview51"
     showgrid="false"
     inkscape:zoom="10.581645"
     inkscape:cx="32.849916"
     inkscape:cy="14.671024"
     inkscape:window-x="50"
     inkscape:window-y="0"
     inkscape:window-maximized="0"
     inkscape:current-layer="Sogeti_Logo_Primary_3COL_RGB"
     inkscape:pagecheckerboard="true" />
  <!-- Generator: sketchtool 51.2 (57519) - http://www.bohemiancoding.com/sketch -->
  <title
     id="title2">18BDA4BC-B47B-495F-AEF8-8BDB7279FAF7</title>
  <desc
     id="desc4">Created with sketchtool.</desc>
  <defs
     id="defs6" />
  <g
     inkscape:groupmode="layer"
     id="layer1"
     inkscape:label="Layer 1"
     transform="translate(-0.06234719,-0.06226278)">
    <g
       style="fill:none;fill-rule:nonzero;stroke:none;stroke-width:1"
       transform="translate(-615,-346)"
       id="Sogeti-global_UI-Components">
      <g
         transform="translate(615,346)"
         id="Sogeti_Logo_Primary_3COL_RGB">
        <path
           style="fill:#ffffff"
           inkscape:connector-curvature="0"
           id="Shape"
           d="m 69.600245,2.8848421 2.389975,-0.394331 v 5.4791245 h 6.463325 v 1.6395866 c 0,1.0377128 -0.831296,1.8678838 -1.870415,1.8678838 h -4.59291 v 7.388516 c 0,1.452798 0.228606,2.511265 0.685819,3.133893 0.457213,0.622628 1.246944,0.933942 2.369193,0.933942 0.768949,0 1.433986,-0.08302 2.036675,-0.249051 0.581907,-0.166034 1.059902,-0.311314 1.413203,-0.456594 l 0.43643,2.075426 c 0.166259,0.767907 -0.166259,1.432044 -1.122249,1.764112 -0.498778,0.166034 -1.662592,0.477348 -3.304401,0.477348 -1.288509,0 -2.389976,-0.166034 -3.242054,-0.518857 -0.87286,-0.352822 -1.55868,-0.850924 -2.078239,-1.515061 -0.51956,-0.664136 -0.872861,-1.452798 -1.080685,-2.407494 -0.207824,-0.933941 -0.311736,-2.013163 -0.311736,-3.21691 V 5.0017765 c 0,-1.0377129 0.768949,-1.9509003 1.808069,-2.1169344 z" />
        <path
           style="fill:#ff4019"
           inkscape:connector-curvature="0"
           id="path9"
           d="m 84.91687,2.6565452 c 0,0.7886619 -0.249388,1.4112897 -0.768948,1.8678834 -0.51956,0.4565937 -1.12225,0.6848905 -1.808069,0.6848905 -0.727384,0 -1.330073,-0.2282968 -1.849633,-0.6848905 -0.51956,-0.4565937 -0.768949,-1.0792215 -0.768949,-1.8678834 0,-0.8094161 0.249389,-1.4527982 0.768949,-1.90939186 0.51956,-0.45659371 1.122249,-0.68489056 1.849633,-0.68489056 0.685819,0 1.288509,0.22829685 1.808069,0.70564482 0.51956,0.477348 0.768948,1.0792215 0.768948,1.8886376 z" />
        <path
           style="fill:#ffffff"
           inkscape:connector-curvature="0"
           id="path11"
           d="m 84.438875,26.129613 h -1.184596 c -1.683374,0 -3.03423,-1.349027 -3.03423,-3.030122 V 7.9696356 h 1.433985 c 1.537897,0 2.784841,1.2452556 2.784841,2.7810704 z" />
        <path
           style="fill:#ffffff"
           inkscape:connector-curvature="0"
           id="path13"
           d="m 49.669927,17.163773 c 0,-1.598078 0.228606,-2.988614 0.706601,-4.192361 0.477995,-1.203747 1.101467,-2.199951 1.891198,-2.9886132 0.789731,-0.7886618 1.683374,-1.3905354 2.701712,-1.8056205 1.018337,-0.394331 2.057457,-0.6018736 3.117359,-0.6018736 2.493888,0 4.447433,0.7679076 5.839853,2.3244771 1.392421,1.5565692 2.099022,3.8602922 2.099022,6.9319222 0,0.228297 0,0.498103 -0.02078,0.788662 -0.02078,0.29056 -0.02078,0.539611 -0.04157,0.788662 H 54.013447 c 0.124695,1.452798 0.623472,2.573528 1.537898,3.382944 0.914425,0.788662 2.244498,1.203747 3.969437,1.203747 1.018338,0 1.953546,-0.08302 2.784842,-0.269805 0.207823,-0.04151 0.415647,-0.08302 0.602689,-0.14528 0.768949,-0.186788 1.517115,0.332069 1.641809,1.099976 l 0.311736,1.888638 c -0.228606,0.124525 -0.540342,0.228297 -0.95599,0.352822 -0.394866,0.124526 -0.872861,0.249051 -1.392421,0.352822 -0.51956,0.103772 -1.080684,0.186789 -1.683374,0.249052 -0.602689,0.06226 -1.205379,0.103771 -1.828851,0.103771 -1.600244,0 -2.971882,-0.228297 -4.156479,-0.705645 -1.184596,-0.477348 -2.140586,-1.12073 -2.909535,-1.971655 -0.768949,-0.850924 -1.330074,-1.826374 -1.704157,-2.967859 -0.374083,-1.203747 -0.561124,-2.449002 -0.561124,-3.818783 z m 12.178484,-1.867884 c 0,-0.581119 -0.08313,-1.12073 -0.249389,-1.639586 -0.166259,-0.518857 -0.394865,-0.97545 -0.706602,-1.349027 -0.311735,-0.373577 -0.685819,-0.684891 -1.143031,-0.892433 -0.457213,-0.228297 -0.997555,-0.332068 -1.621027,-0.332068 -0.644254,0 -1.205379,0.124525 -1.704157,0.373576 -0.477995,0.249051 -0.893643,0.560365 -1.226161,0.954696 -0.332518,0.394331 -0.60269,0.850925 -0.789731,1.349027 -0.187042,0.498102 -0.311736,1.016959 -0.374083,1.55657 z" />
        <path
           style="fill:#ffffff"
           inkscape:connector-curvature="0"
           id="path15"
           d="m 31.672372,17.018493 c 0,1.432044 -0.207824,2.739562 -0.60269,3.922555 -0.394865,1.182993 -0.976773,2.179197 -1.724939,3.030122 -0.748166,0.83017 -1.621027,1.473552 -2.680929,1.9509 -1.03912,0.456594 -2.182151,0.684891 -3.449878,0.684891 -1.267726,0 -2.389975,-0.228297 -3.429095,-0.684891 -1.03912,-0.456594 -1.91198,-1.12073 -2.660147,-1.9509 -0.748166,-0.830171 -1.309291,-1.847129 -1.724938,-3.030122 -0.415648,-1.182993 -0.623472,-2.490511 -0.623472,-3.922555 0,-1.432044 0.207824,-2.739562 0.623472,-3.901801 0.415647,-1.162238 0.997554,-2.179197 1.745721,-3.009368 0.748166,-0.83017 1.641809,-1.473552 2.680929,-1.9301457 1.03912,-0.4565938 2.161369,-0.6848906 3.38753,-0.6848906 1.226162,0 2.369194,0.2282968 3.408313,0.6848906 1.03912,0.4565937 1.932763,1.0999757 2.68093,1.9301457 0.748166,0.830171 1.30929,1.826375 1.724938,3.009368 0.436431,1.162239 0.644255,2.469757 0.644255,3.901801 z m -4.15648,0 c 0,-1.805621 -0.374083,-3.237665 -1.122249,-4.296132 -0.748166,-1.058467 -1.808068,-1.577324 -3.138142,-1.577324 -1.350856,0 -2.389975,0.518857 -3.138142,1.577324 -0.748166,1.058467 -1.122249,2.490511 -1.122249,4.296132 0,1.826375 0.374083,3.279173 1.122249,4.33764 0.748167,1.058467 1.808069,1.598078 3.138142,1.598078 1.350856,0 2.389976,-0.539611 3.138142,-1.598078 0.748166,-1.058467 1.122249,-2.511265 1.122249,-4.33764 z" />
        <path
           style="fill:#ffffff"
           inkscape:connector-curvature="0"
           id="path17"
           d="M 13.570905,19.19769 C 13.363081,18.616571 13.030562,18.097714 12.57335,17.661875 12.116137,17.205281 11.555012,16.81095 10.848411,16.437373 10.162592,16.084551 9.3105135,15.710975 8.3129584,15.337398 7.7102689,15.129855 7.190709,14.922313 6.7750611,14.735524 6.3594132,14.548736 6.0268949,14.341193 5.7567237,14.154405 5.507335,13.967617 5.3202934,13.73932 5.2163814,13.511023 5.1124694,13.282726 5.0501222,13.012921 5.0501222,12.722361 c 0,-0.601873 0.2701712,-1.037713 0.8105135,-1.328272 0.5403423,-0.29056 1.2261614,-0.43584 2.0782396,-0.43584 0.6858191,0 1.3300734,0.04151 1.891198,0.14528 0,0 0.3533007,0.06226 0.3533007,0.06226 1.226162,0.145279 2.369193,-0.622628 2.618582,-1.8471295 L 12.988998,8.4054751 C 12.157702,8.1149155 11.347188,7.9488814 10.806846,7.8451101 10.079462,7.6998303 8.9779951,7.5545505 7.7518337,7.5545505 c -2.1198044,0 -3.782396,0.4773479 -5.0085574,1.4320439 -1.2261614,0.9546959 -1.84963327,2.2829686 -1.84963327,3.9433096 0,0.850924 0.12469437,1.577323 0.39486557,2.179197 0.2701711,0.581119 0.6234718,1.099976 1.101467,1.515061 0.4572127,0.415085 1.0183374,0.788662 1.6418092,1.099976 0.6442543,0.311313 1.3300734,0.601873 2.099022,0.892433 1.2469438,0.456593 2.1405868,0.892433 2.7017115,1.286764 0.5403423,0.394331 0.8105135,0.892433 0.8105135,1.494307 0,0.643382 -0.2493888,1.099975 -0.7689487,1.369781 -0.5195599,0.269805 -1.3300733,0.394331 -2.4315403,0.394331 -1.1638142,0 -2.0574572,-0.124526 -2.6185819,-0.269806 -0.4572127,-0.103771 -0.7481663,-0.207542 -1.1430318,-0.207542 -1.0806846,0 -2.07823961,0.68489 -2.38997555,1.764112 l -0.22860636,0.871679 c 0.4987775,0.228296 1.68337411,0.622627 2.49388751,0.83017 0.8728607,0.228297 1.9535453,0.415085 3.8863081,0.415085 2.3899755,0 4.2188262,-0.435839 5.5073352,-1.328272 1.288508,-0.892434 1.932763,-2.199952 1.932763,-3.94331 0,-0.809416 -0.103912,-1.515061 -0.311736,-2.09618 z" />
        <path
           style="fill:#ffffff"
           inkscape:connector-curvature="0"
           id="path44"
           d="M 45.284841,7.8866186 C 44.100245,7.679076 42.853301,7.5753047 41.54401,7.5753047 c -1.350856,0 -2.577017,0.2282969 -3.636919,0.6641363 -1.059903,0.4358395 -1.974328,1.0584673 -2.722494,1.847129 -0.748167,0.788662 -1.309291,1.743358 -1.704157,2.843334 -0.394865,1.12073 -0.581907,2.324477 -0.581907,3.652749 0,1.41129 0.187042,2.656546 0.561125,3.735767 0.374083,1.079222 0.87286,1.971655 1.537897,2.698054 0.665037,0.726399 1.454768,1.26601 2.369193,1.639586 0.914426,0.373577 1.932763,0.560365 3.055012,0.560365 0.852079,0 1.600245,-0.103771 2.244499,-0.311314 0.561125,-0.186788 1.03912,-0.352822 1.413203,-0.53961 0,1.764112 -0.748166,3.175401 -3.096577,3.756521 -0.95599,0.228296 -2.244499,0.166034 -3.969438,-0.311314 -0.477995,0.871679 -0.748166,2.38674 -0.02078,3.279173 0.644254,0.767907 2.223716,0.913187 3.221271,0.913187 2.244499,0 4.67604,-0.954696 5.819071,-2.013163 1.496333,-1.369781 2.244499,-3.50747 2.244499,-6.43382 V 8.5715092 C 47.466993,8.3224581 46.448655,8.0941612 45.284841,7.8866186 Z M 44.079462,20.775014 c -0.353301,0.249051 -0.789731,0.477348 -1.350856,0.664136 -0.561124,0.186788 -1.143031,0.269805 -1.787286,0.269805 -1.143032,0 -2.099022,-0.415085 -2.826406,-1.224501 -0.727383,-0.83017 -1.101467,-2.116934 -1.101467,-3.901801 0,-1.639586 0.374084,-2.967859 1.143032,-3.984817 0.768949,-1.016959 1.849633,-1.515061 3.283619,-1.515061 0.623472,0 1.143032,0.02075 1.55868,0.08302 0.415647,0.06226 0.768948,0.124525 1.039119,0.186788 v 9.422434 z" />
      </g>
    </g>
  </g>
</svg>
